<?xml version="1.0" standalone="no"?>
<!DOCTYPE svg PUBLIC "-//W3C//DTD SVG 1.1//EN" "http://www.w3.org/Graphics/SVG/1.1/DTD/svg11.dtd">
<svg xmlns="http://www.w3.org/2000/svg">
<metadata>Copyright (C) 2018 by original authors @ fontello.com</metadata>
<defs>
<font id="fontello" horiz-adv-x="1000" >
<font-face font-family="fontello" font-weight="400" font-stretch="normal" units-per-em="1000" ascent="850" descent="-150" />
<missing-glyph horiz-adv-x="1000" />
<glyph glyph-name="simple-tick" unicode="&#xe800;" d="M14 312c-9 9-14 23-14 32 0 9 5 23 14 32l68 65c19 18 48 18 67 0l5-5 264-272c10-9 24-9 34 0l644 641 5 0c19 18 48 18 67 0l68-65c19-18 19-46 0-64l-770-765c-9-10-19-14-33-14-15 0-24 4-34 14l-375 387-10 14z" horiz-adv-x="1250" />

<glyph glyph-name="plus" unicode="&#xe801;" d="M911 462l0-223-335 0 0-336-223 0 0 336-335 0 0 223 335 0 0 335 223 0 0-335 335 0z" horiz-adv-x="928" />

<glyph glyph-name="white-block" unicode="&#xe802;" d="M520 342l358 207 0-466-403-233 0 466 45 26z m-82 508l155-90-415-239-155 90 415 239z m414-239l-260-151-154-89-156 90-23 12 414 239 179-101z m-852-527l0 463 153-88 0-119 74-38 0 113 174-100 0-463-401 232z" horiz-adv-x="909" />

<glyph glyph-name="page-scroll" unicode="&#xe803;" d="M573 715h223l-53-52a22 22 0 0 1 0-31 24 24 0 0 1 32 0l93 90a22 22 0 0 1 6 22l0 1a36 36 0 0 1-1 2c0 0 0 1-1 1 0 0 0 1 0 1 0 0-1 1-1 1l0 1-1 1-1 1a5 5 0 0 1-1 0l-93 90a24 24 0 0 1-32 0 22 22 0 0 1 0-31l53-52h-223c-13 0-23-10-23-22 0-13 10-23 23-23m-441-52l-53 52h222c12 0 23 10 23 22a23 23 0 0 1-23 23h-222l53 51a22 22 0 0 1 0 32 24 24 0 0 1-33 0l-92-90-1 0a18 18 0 0 1-1-2c0 0 0 0-1-1l0 0a40 40 0 0 1-1-2c0 0 0 0 0 0 0-1-1-1-1-2l0 0-1-2 0 0a21 21 0 0 1 0-2l0 0a22 22 0 0 1 6-21l92-89a24 24 0 0 1 33 0 22 22 0 0 1 0 31m750-572c0-109-87-197-194-197h-101a148 148 0 0 0-106 45l-307 311a22 22 0 0 0 0 31 69 69 0 0 0 91 7l109-84a21 21 0 0 1 23-2 22 22 0 0 1 12 20v416c0 24 19 43 43 43 23 0 43-19 43-43v-329c0-12 9-21 21-21a22 22 0 0 1 22 21v110c0 24 19 44 43 44 23 0 43-20 43-44v-110c0-12 9-21 21-21a22 22 0 0 1 22 21v66c0 24 19 44 43 44s43-20 43-44v-66c0-12 10-21 21-21a22 22 0 0 1 22 21v22c0 24 19 44 43 44 24 0 43-20 43-44v-240z m-43 328a85 85 0 0 1-48-15c-12 34-44 59-81 59a85 85 0 0 1-48-15c-12 34-44 58-81 58-16 0-31-4-43-11v143c0 48-39 87-86 87-48 0-87-39-87-87v-372l-74 57a112 112 0 0 1-147-11 67 67 0 0 1 0-93l306-311a191 191 0 0 1 137-58h101c131 0 237 108 237 241v240c0 49-39 88-86 88z" horiz-adv-x="925" />

<glyph glyph-name="no-1-towbar-manufacturer-1" unicode="&#xe804;" d="M966 304h0a86 86 0 0 0 0 92h0a86 86 0 0 1-27 119 86 86 0 0 0-40 83h0a86 86 0 0 1-76 96h0a86 86 0 0 0-72 57h0a86 86 0 0 1-110 53h0a86 86 0 0 0-90 21h0a86 86 0 0 1-123 0h0a86 86 0 0 0-88-21h0a86 86 0 0 1-111-53h0a86 86 0 0 0-72-57h0a86 86 0 0 1-76-95h0a86 86 0 0 0-40-83 86 86 0 0 1-28-120h0a86 86 0 0 0 0-92h0a86 86 0 0 1 28-119h0a86 86 0 0 0 39-83h0a86 86 0 0 1 77-95h0a86 86 0 0 0 72-58h0a86 86 0 0 1 111-53h0a86 86 0 0 0 89-21h0a86 86 0 0 1 123 0h0a86 86 0 0 0 89 21h0a86 86 0 0 1 110 53h0a86 86 0 0 0 72 57h0a86 86 0 0 1 77 96h0a86 86 0 0 0 39 83h0a86 86 0 0 1 27 119z m-476-292a338 338 0 1 0 338 338 338 338 0 0 0-338-338z m184 288a36 36 0 0 0-15-58 36 36 0 0 0 8-23 37 37 0 0 0-33-34 69 69 0 0 0-23-3c-6 0-77 0-103 0-30 0-64-3-89 15a63 63 0 0 0-19 19v-5a28 28 0 0 0-28-29h-52a28 28 0 0 0-27 29v178a28 28 0 0 0 27 29h52a28 28 0 0 0 27-23 38 38 0 0 0 18 22 191 191 0 0 1 21 14 441 441 0 0 1 39 47 120 120 0 0 1 27 61l2 36c0 6 9 10 9 10h0a58 58 0 0 0 35-11c10-13 11-28 8-50a296 296 0 0 0-14-56 68 68 0 0 1-1-37c4-11 21-8 24-8 24 0 32 4 52 5a108 108 0 0 0 38-5c19-7 33-18 32-38a35 35 0 0 0-13-25 36 36 0 0 0 14-31 36 36 0 0 0-17-29z" horiz-adv-x="979" />

<glyph glyph-name="check" unicode="&#xe805;" d="M249 0q-34 0-56 28l-180 236q-16 24-12 52t26 46 51 14 47-28l118-154 296 474q16 24 43 30t53-8q24-16 30-43t-8-53l-350-560q-20-32-56-32z" horiz-adv-x="667" />

<glyph glyph-name="cancel" unicode="&#xe806;" d="M724 112q0-22-15-38l-76-76q-16-15-38-15t-38 15l-164 165-164-165q-16-15-38-15t-38 15l-76 76q-16 16-16 38t16 38l164 164-164 164q-16 16-16 38t16 38l76 76q16 16 38 16t38-16l164-164 164 164q16 16 38 16t38-16l76-76q15-15 15-38t-15-38l-164-164 164-164q15-15 15-38z" horiz-adv-x="785.7" />

<glyph glyph-name="quality-fitters" unicode="&#xe807;" d="M581-23v-69h99a92 92 0 0 0-171 0h-220a92 92 0 0 0-170 0h99v69h-99a92 92 0 0 0 170 0h220a92 92 0 0 0 171 0z m216 76c-17 92-47 147-82 166s-185 108-185 108l-98-55-33-71-32 71-98 55s-151-89-186-108-65-73-81-166c-13-72 51-110 80-124a21 21 0 0 1 24 5 13 13 0 0 1 0 17 92 92 0 0 0-19 31c-5 19 30 93 121 93 68 0 98-36 110-53a21 21 0 0 1 18-10h127a21 21 0 0 1 18 10c11 17 41 53 110 53 91 0 126-74 121-93a92 92 0 0 0-19-31 13 13 0 0 1 0-17 21 21 0 0 1 24-5c28 14 93 52 80 124z m-551 334a357 357 0 0 0-66 227c2 86 35 195 123 223a338 338 0 0 0 96 13h0a338 338 0 0 0 96-13c88-28 122-137 124-223a357 357 0 0 0-67-227 191 191 0 0 0-73-63 176 176 0 0 0-159 0 191 191 0 0 0-74 63z m102 320h102a29 29 0 0 1 0 58h-102a29 29 0 0 1 0-58z m-137-97a324 324 0 0 1 61-206 171 171 0 0 1 83-62 126 126 0 0 1 89 0 171 171 0 0 1 83 62 324 324 0 0 1 60 206c-11-14-26-30-36-25-18 8-38 40-82 55l-5 1a206 206 0 0 1-129 0l-5-1c-44-16-64-47-82-55-10-5-25 11-37 26z" horiz-adv-x="798" />

<glyph glyph-name="made-in-the-uk" unicode="&#xe808;" d="M626 54v-5l0-5 0-7-1-4-2-5-3-5-5-4-2-12-3-2-2-3-4-4-8-7-7-6-2 1-3 2-4 2-3-1-2-3 4-1 3-1 1-6 0-3-5-4-5-2-6 1-4 2-4-1-1-4 0-7 0-5-2-3-6-3-7-2-4 0-1 1-5 1-1-3-11 1-6-4-2-3 3 0h4l1 2h2l8 0 4-2 1-2-6 0-4-5 11-2 4 3 2 1 1-2 3-1 4-4 1-3 3-3 6 2 9-1 9-1 4 0 1-2 0-2-4-2 0-6-2-11-3-1-3-3-4 0-6-3-8 1-7-5 0-5v-5l-5 2-7 3-6-3-6-4h-5l-9 0-7-4-8-5-5 3-12 6-9 5-5 3-6-2h-6l-8 2-9 0-6-2-6-2-3 2-3 3-1 5-5 2-6 3-4 0 3-4-2-1-3 0-4 5-4 5-3 4-4 1 0-2 2-3 3-4 0-3-4-1-8-4-4 0-3 0-2 2-7 0h-7l-10 1 0 1-3 2-1-3v-4l6-2-1-5-1-2-10 2-2 3-4 2-6 2-5 2-6-3-4-1-3 5-4 4-8 6-4 3-6 1-4-2-10 0-12-2-8-3 0 4-2 3-1-4 0-3-4-5-4-7-2-5-1-2 1-2 0-2-2-2-6-4-3-2-1-6-2-1-4 0-4 1-3 3-3 3 0 4-11 2-2 3 0 2-2 3-5-3-3 4-12 3-3-2-17 3-3-1-3-8-4-3-7 0-5-3 0 3-4-6-3-7-1-6-5 0-2-5-4 5 0 3-2 3-7 7-5 3-2 0-4-6-6-1-2 3 0 4 5 7 9 3 5-3 5 2 4 2 12 8 2 3 1 5 6-1 4 11 19 7 1 5 6 2 8 9 3 1 2 12 4 10 14-6 7 6 1 6 1 9 12 0 11-2 0 2 7 0 9-4h5l10-6 26-3 7 18 7 5 15 7 7 9 15 15 3-1 1 4-24-16-10-5-5 0-9 0-10-4-4-7-6 0-9 0-8 3-5 9-5 4-5 15-9 1-5-4-9 1-1-3-4 2-4 1v5l5 2 2-1 4 0-1 5-3 3-5-1-4 4 2 0-2 4 4 4-2 3-5-4-4 1 1-5-7 3-11-2-2-5-8-2-7-2-6 4-3 5 6 0 4 1 1 3-7 1-6 2-3-2 1 4 1 2 5 0 0 6 0 5-7 0-5 3 0 2 3 0 6 3 7 1 2 6 3-2 5-2 9 6 9 3 13 1 10 6h7l12 9 4 8 5 8 1 8-2 10 6 7-1 4-3 11 3 2-1 5-3 6-4 2-5-1h-6l-6-4-2-2 0-3-2 0-2 3-4 1-4-2-5-1 0 2 4 3 2 4 5 2 6 3 5 2 6 3 1 4 3 4 2 4 6 3-4 3-4-4-1 0-1 2-3 3-3 4-1 5-8 5 2 2 6-1 0 5 1 7 9 1 9-3 5-15 8 1-5-8 3-2 13 3 9 6 6-5 10-2 10 3 6 0 8-11 6-7 0 6 0 8-4 7 7 3 8-15 7-2 12 3 0 4-15 0-7 13-1 5-2 9 12 15-5 8 3 14 3 2 5-1 3 4 3 2-1 7 5 2 3 3 0 7-5 8-5-5-3 5-3 2-3-4-3-6-7-6-1 3-1 6 3 4 4 5v5l-7-5-2 0-1 3-3 5 0 10-3 8-6 10v3l4 7 1 8 8 8 11 15 6 7s4 4 4 4-8 0-8 0l-9-6-3 4 0 7h-4l-2-6-7-5-11 0-2-5-3 0-3-3-6 1-2 6-2-3-3 0-2 2-3 5-7 8-3 1-3-7 2-4-2-12-7 0-3 8-4 4-4 5-5 4-4 4-3-1-5-3-2-3 1-6 3-6-2-6-3 2 0 6 0 6-3 7-4 6-2 4 0 3 2 6 2 2 3-2v-4l1-5 4 0 2 3-4 12 4 6 4 7 5 4 6 6 2 10 9 8 7 3 2 8-1 9-3 5-3 5-5 7 2 11 0 10 1 5 5 4 5-2 5-3 6-2 4 2-6 2-4 1-4 5-3 4 0 3-2 1-1-4 1-3-2-1-1 3 1 7-1 2-5-4 0-4 0-3-4-6-3-7-3 1-1 5 0 5-3 2 0-4v-1l-2-1v-6l4-6-2-10 0-1-2 4-2 2-1 3 0 4-1 4-3 5-1 0 0-5 0-2-4 2-2 3 0 6 2 8 6 7 5 6 3 0 4 4 5 5 4 1 2 2-5 2-3-1-4-5-5-5-5-2-3-4-4-3-3-2h-5l-1-10v-9l4-6 0-7-7-3-2-4-2-3-2-3v-7l-3-6-3-6-3-4-2 0-1-2 1-3 3-5-2-2-3-2-4-1-8 0 1 5v5l3 3 3 3 3 15 4 5 1 6 2 3 3 4 2 4 0 3-2 4 0 5 6 6v3l-7-3 2 6-2 1 2 2 2 4 6 5-5 3 8 0 1 4 3 8-6-2 5 7 2 2-3 3-4-1-2-5-2 0v2l2 0 1 5 0 2 1 4 2-2 3 1 5 5v6l8 4 3 11 4 5 3 4 3 2 5 3 3 3-3 3 6 5 4 3 0 6-2-3-4-3-4-4-5-5-6-3-6-4-6-4-4-4-3-5-6 1-5 3-4 2-3 3-4 5-1 4 12 1 4 4-3 2-6-1-16 3-5 2v2l3 2 5 1 16-1 2 6 7 0 2 7-9 1 0 5 3 5 5 5 5-3 2-3-5 1-2-1 1-3 4-1 7-1 4 1v2l-6 0-1 1 2 1 1 2-3 2 1 4-4 1-3 2-1 2 5 3 4 3 2 0 3-3 3-2 3-2 1 3-3 2-1 3-3 0-2 2-3 2 4 2 1 4 0 3-2 1-3-5-3-1-3-1-3-4-4-4-4-4-3-2-5-1 0 2 2 3 3 5 2 2-1 3-1 4 0 1-2 1-2-3-1-3h-3l1 5-2 2-3-1-3 0h-4l-2 4-2-1h-2l0 2-1 3-2 5-1 4 5 6-5 7-1 2-2-1h-3l0-5-2 0-3 0-4 3-1 3-1 4 0 2 3 0 1 5 3-5 4 2 1 12 3 0 3-7 4-1 3-3 3 1 2 10-2 4 1 5 4 3 4-1 2-1 1-3 2-4 1-4 0-3-2-15-2-2-2-3 3-2 1-5 0-2-2 0-1-3 4-2 1-3 4-3 2 0v3l0 2 2-3-1-1 0-3 4-3 1-1 2 1 5 1h4l2 5 3 4h10l7 4 1 3-2 1-2-1-4-3h-2l-1 3-4 1-4-2-4-2-1 2-3 2 0 4 0 5 2 6 3 7 6-5 2 1 0 4s-2 4-2 5-4 6-4 6l2 3 6 1 2 2-2 3-4 2-2 2 3 3 1 8 4 1 2-2 0-4 2-6 5 3v4l-2 6 2 3 2 0 1-1 2-7 3-1 3 4 7-5 2 3-4 5 8-2 0-2 3-2 4-2 1 2-2 4-2 2-2 5-4 2-1 3 0 3-5 3-1 3-1 4 2 0 6-3 3-1 2 4 2 3-3 4 0 4-1 5 0 3 3-3 4 2 8 0 1 1 0 8 1 7 2 4 6 5-4 5 1 2 4 4 2 4 3 5 6-2 7-4 4-3 1-5-1-3-4-4-1-2 3-1 5 3 2 2 2 4 2 3 8-2 2-1 1-3-3-2-1-3 4-1 4 4 5 1 1-1 2 1 7 0 3 0 22-4 7 4 4 1h6v-3l9-2 1 6 12-2 3 2 0-3 4-1 1 1 3 0 0-6-2-2-4-6-3-4 1-4 3-1-1-3-3-4-4-4-2-3-4-3-5-1-4-2-5-3-5-5-3-3-4-1-5-3-4-4-6-1-4-3-4-5-6-4-5-3 0-6-5-1-4 0-3-1-2 0 0 2-2 0-4 0-3 4-4 3v-3l2-4 4-3 3-2 4-3 5-1 3-3 3 1 3 3 2 0 2-3 2-1 2 2 3 2h1l-2-3-4-3-2-1-3-3-2-3-2-2-3 5-2-1-7-3-6 0-6-2-5-5v-3l2 1 4 2 4 3 3 0 3-1 4-1 3 1 2 0-3-3-3-2-4-3-3-2-3-4-2-2h-3l-4 1-2-1-2-4 6-1 4 1h2l1-1 3-2 4 6 4 2 3 3 2 2 3-1 1-2 4 1h4l8 6 9-1 5 0 1 3 5 1h5l6 0 5-4 5-4 8-2 5 3 3 1 3-2 4-1 5-3 3-1 8-1 1-2 2 1 5-1 2 1h3l2 1 1-1 2-5 6-1 6 2 5-2 4-3 3-4 3-5 0-4 0-6 1-3-1-5-6-5-3-3-4-5-3-1-4-6-1-2-2-3-2-2-3-15-3-3-2-2-2-3-2-6-3-6-2-4-4-4-5-2-4-4-4-5-4-5-3-3 0-3 0-4-3-3-8-4-6-4-2-2-2 1-6 2-2-1-4-1-9 1-3-2-6-3-5-4h-2l-1-2 4-2 4 2 5 0 5 2 5 2 5 2h3l2-3 0-3-2-2v-4l3-2 4-2 4-3 3-3-1-3-3-2-3-2-3 0-3-1-5 0-2 1-2 2-4 1-4-4-6-3-3-3-4-4-7-2-4 0-4-1-5 1-5 2-9 1-9 3 6-7 7-6 8 0 10-1 2-5 13-5 5 0 7 2 4 4 4 3 4 2 6-2 5-5 3-2 5-3 5-6 4-4 9-2 3-1 1-3 1-4 1-6 3-5 0-2 3-7 3-4v-2l2-2 5-4 4-3 3-3 0-7 1-4 0-6 0-3-2-1-1-8 2-4 0-2-2-3 1-2 2-4 0-12 1-5 1-5 1-4 2-5 0-5v-8l1-6 1-5 2-6 2-8 4-6 4-1 2-4 6-2 3-2 3-2 4-2 2-2 3-1 3-5 2 0 2-4 2-6 2-4 3-6 1-5 0-4 4-2 3-3 0-5 3-3 3-2 4-2v-2l-4-2-3-4-2-3 0-5v-7l3-9 4-8 4-10 3-6 1-5-2 2-3 2-3 2-4-1-5 0-2 3-3 5-2 4-5 2-5-2-6 0-7 1-5 4-5-3-1-5 1 0 4 0 2-1 9-1 7 0 8 0 1-3 3-7 5-6 3-4 6-3 3-4 3-2 1-3 2-5 2-6 1-8 0-6 1-6-2-7-2-6-4-2-6-2-5-3-3-4-2-3 1-5 3-3 3-4 2-4 5-1 4-2 2 2 2 2 4 2 2 5 3 4 3 0 4 0 5 1 4-1 3-2 11-2 8-2 5-3 5-2 3-2 4-1 7-9 7-9 5-7 1-4z m-382 272l-10-12-10-12-2-7 10-2 13 9 9 10-2 6 2 11z m-17 153l-2 8-6 4-8-7v-5l2-8v-8l6-6 5 1 4 0-1 9 1 5z m-57 34l6-3 3 9 7 6 10 13 2 11-20-14 2-5-9-5z m229-629l-9 3-18-4 6-6 7-9 8 0 5 8 6 1-1 7z m-261 618l6 3 3 5 4 4 2-3-4-5 3-5 0-3-5-4 0-4 5-1 3 5 8 0 4 7-2 13 0 14-6-2-8-7-1 5-8-2-1-10-6-6z m30 75l-5 3-4-1 2-7 13 0 11 1 8 3 4-4 7 5 5 7-4 5-4 6-7 1-5 11-5 7-4 2-9-6-4-5 7-5 4-5 8 1 3-2-12-4-5-5 1-4 7 0 8 1-5-5z m-23 37l8-2 7 8 0 3h-4z m36 41l0 10-6 4-8-6 7-10z m-65 29l-1 6 3 7 6 8-2 13-9 3-3-12-2-5 0-16z m0 52l1-3-4-6 13-7-2 8 9 6 3 10-3 3 5 5-4 2-1 3-6-3-14 2-4-7 9-6z m36 25l8 7 6 1 0 5 0 4 2 1 4-4 1 6 4 0 2 2 8-2 1 7 8 1v7l-4 4 9 10v7l14 11 2 13-3 9-8-7-11-5-4-4-18-9 3-13-8 10-3-8-10 10-7-12-1-6 5-6-4-3 2-9 7-2 5-6-3-1-3 2-4-4-5-4-3-5 5-8z m-68-406l2-22 10-7 0-13 10 2 6-3 3 6 9-3 7-4 4-6 9 6 5 11 6 3 10-2 9 11-3 5-5-2-2 3 6 5-2 10 0 6 2 3 8-13-4-7v-5l2-2 6 10-1 22-16 6-8-5-2 4 18 13-3 7-3-2-6 14-3 6 2 9-6 1 3 15-4 5-4 0-13 5-6 4-4-4-7 2-10-5-9 1-2 4-10-17-13 6-12-3-15-31-13-2-5 5-9-3 3-10 11-4-13-6-9 3-13-10 16-21-1-10 11-2 6-9h13l6-6 5 9 9 2-1 14 12 7z" horiz-adv-x="627" />

<glyph glyph-name="tag" unicode="&#xe809;" d="M680 676c30 31 80 31 110 0 18-18 25-43 22-66 30-21 65-41 103-56 14-6 27-11 40-15l-2 109c2-1 4-2 7-3 59-24 113-58 147-92 0-1 1-1 1-2 33-33 37-55 34-61-9-20-100-39-239 19-41 17-79 39-110 61-1-1-2-2-3-3-31-31-80-31-110 0-30 30-30 79 0 109z m-350-765c36-37 96-37 132 0l455 454c13 13 23 29 30 45 45-13 90-19 129-19 97 0 129 43 139 68 11 25 18 78-50 147l-2 3c-42 42-103 81-173 109-13 6-25 11-38 15l0 1c-1 55-46 100-101 101l-273 4c-36 0-70-14-96-39l-454-455c-37-36-37-96 0-132l302-302z" horiz-adv-x="1222" />

<glyph glyph-name="click-icon" unicode="&#xe80a;" d="M871-70l-204 204c-6 6-15 9-23 9-2 0-3 0-5 0-10-1-19-7-24-16l-69-119-196 492 492-196-119-69c-9-5-15-14-16-24-1-10 2-21 9-28l204-204-49-49z m119 73l-196 196 140 82c11 6 17 18 16 31-1 12-9 23-20 28l-627 250c-12 5-26 2-35-8-10-9-12-23-8-35l250-627c5-11 16-19 29-20 12-1 24 5 31 16l81 141 197-197c6-7 14-10 23-10 9 0 17 3 23 10l96 96c13 13 13 34 0 47z m-828 739c-15 15-39 15-54 0-15-15-15-39 0-54l85-85c7-7 17-11 27-11 10 0 19 4 27 11 15 15 15 39 0 54l-85 85z m-1-215c0 18-14 33-31 33l-99 0c-17 0-31-15-31-33 0-17 14-32 31-32l99 0c17 0 31 15 31 32m0-107l-85-85c-15-15-15-39 0-54 7-8 17-12 27-12 10 0 19 4 27 12l85 84c15 15 15 40 0 55-15 14-39 14-54 0m162 269c17 0 32 14 32 31l0 99c0 17-15 31-32 31-18 0-33-14-33-31l0-99c0-17 15-31 33-31m135-65c9 0 19 4 27 11l84 85c15 15 15 39 0 54-14 15-39 15-54 0l-84-85c-15-14-15-39 0-54 7-7 17-11 27-11" horiz-adv-x="1000" />

<glyph glyph-name="shield" unicode="&#xe80b;" d="M352 123l-182 182 64 64 118-118 299 300 64-65-363-363z m90 727l-409-182 0-272c0-253 175-489 409-546 235 57 410 293 410 546l0 272-410 182z" horiz-adv-x="900" />

<glyph glyph-name="package-icon" unicode="&#xe80c;" d="M626 516l-160-77-356 171 160 76 356-170z m-279 207l119 57 355-170-118-57-356 170z m153-341l162 77 0-107c0-19 15-34 34-34 18 0 33 15 33 34l0 140 137 65 0-445-366-175 0 445z m-68 0l0-445-365 174 0 445 365-174z m501 233c-1 3-2 6-3 9-5 9-13 16-22 18l-427 205c-9 4-21 4-30 0l-432-207c-11-5-18-16-19-29l0-521c0-13 7-24 19-29l432-207 4-2 11-2c1 0 3 0 3 0 2 0 3 0 4 1l4 1c1 0 1 0 2 1l2 0 1 1 432 207c12 6 19 17 19 30l0 523 0 1z" horiz-adv-x="933" />

<glyph glyph-name="cancel-1" unicode="&#xe80d;" d="M452 194q18-18 18-43t-18-43q-18-16-43-16t-43 16l-132 152-132-152q-18-16-43-16t-43 16q-16 18-16 43t16 43l138 156-138 158q-16 18-16 43t16 43q18 16 43 16t43-16l132-152 132 152q18 16 43 16t43-16q18-18 18-43t-18-43l-138-158z" horiz-adv-x="470" />

<glyph glyph-name="plus-circle" unicode="&#xe80e;" d="M500 850c-275 0-500-225-500-500s225-500 500-500 500 225 500 500-225 500-500 500z m0-910c-225 0-410 185-410 410s185 410 410 410 410-185 410-410-185-410-410-410z m200 460h-150v150c0 30-20 50-50 50s-50-20-50-50v-150h-150c-30 0-50-20-50-50s20-50 50-50h150v-150c0-30 20-50 50-50s50 20 50 50v150h150c30 0 50 20 50 50s-20 50-50 50z" horiz-adv-x="1000" />

<glyph glyph-name="alert" unicode="&#xe80f;" d="M500 850c-275 0-500-225-500-500s225-500 500-500 500 225 500 500-225 500-500 500z m0-910c-225 0-410 185-410 410s185 410 410 410 410-185 410-410-185-410-410-410z m0 235c-35 0-60-30-60-60 0-35 25-60 60-60 35 0 60 30 60 60 0 30-25 60-60 60z m0 475c-35 0-60-20-60-50 0-95 10-230 10-325 0-25 25-35 50-35 20 0 50 10 50 35 0 95 10 235 10 330 0 25-25 45-60 45z" horiz-adv-x="1000" />

<glyph glyph-name="arrow-white-right" unicode="&#xe810;" d="M542 301l-424-431c-27-27-71-27-98 0-27 28-27 72 0 99l376 381-376 381c-27 27-27 71 0 99 27 27 71 27 98 0l424-430c14-14 21-32 21-50 0-18-7-36-21-49" horiz-adv-x="600" />

<glyph glyph-name="trusted" unicode="&#xe811;" d="M338 125l-180 181 64 63 116-116 295 297 63-64-358-361z m89 725l-406-182 0-272c0-253 173-489 406-546 233 57 406 293 406 546l0 272-406 182z" horiz-adv-x="833" />

<glyph glyph-name="thumb-icon" unicode="&#xe812;" d="M909 186c-8-5-14-14-16-24-1-10 2-21 10-28 9-10 15-23 14-36-1-20-15-38-36-45-9-3-17-11-20-21-3-11-1-22 5-30 5-7 11-17 10-32-1-24-21-44-48-47-2 0-4-1-6-1-12-4-26-6-42-5-7 0-39 0-80-1-56 0-127 0-162 0-10 0-19 0-29 0-59 0-120-1-164 30-14 9-25 21-34 35-8 12-23 17-37 13-14-4-23-17-23-31l0-13c0-19-14-34-32-34l-122 0c-18 0-32 15-32 34l0 413c0 19 14 34 32 34l122 0c15 0 28-11 31-27 3-15 15-26 30-28 14 0 28 9 33 23 5 14 14 26 26 32 15 8 29 18 41 27 4 3 7 5 11 8 1 1 2 2 3 3 27 24 62 68 96 112 40 52 63 107 66 159 2 22 5 61 8 75 0 1 0 2 1 3 0 0 0 0 0 0 8 2 35-3 45-15 13-15 18-45 13-89-3-31-13-68-31-125-1-1-1-2-1-4-8-35-15-73-2-105 13-29 41-42 87-39 33 1 54 4 73 7 17 3 31 5 51 6 27 1 57-3 77-11 55-18 53-42 53-54-1-13-7-26-18-35-8-6-12-16-12-26 0-10 5-20 13-26 15-10 23-26 22-43-1-16-10-30-26-39m91 36c1 27-7 53-23 74 11 17 17 35 18 55 2 40-13 92-96 121-32 11-73 15-101 14-25-1-42-4-59-7-18-3-36-5-63-6-1 0-3 0-5 0-14-1-20 0-22 1-5 14 1 39 5 62 20 61 30 102 34 137 7 64-2 109-28 139-31 36-91 45-118 33-23-8-36-19-42-51-4-22-8-77-9-84-2-38-20-81-52-122-20-26-61-78-87-103-4-3-7-5-11-8-10-8-21-16-32-21-9-5-18-11-25-18-17 16-40 25-65 25l-122 0c-54 0-97-45-97-100l0-413c0-55 43-100 97-100l122 0c35 0 65 19 82 47 3-2 5-4 8-6 60-42 134-41 200-41 10 0 19 0 29 0 35 0 106 0 162 0 40 1 72 1 78 1 23-1 43 2 61 7 57 8 100 54 102 109 1 14-1 28-5 41 27 21 44 52 46 86 1 20-3 40-12 57 18 20 29 45 30 71" horiz-adv-x="1000" />

<glyph glyph-name="calendar" unicode="&#xe813;" d="M922 561h-844v94c0 21 18 39 39 39h47v-78h78v78h516v-78h78v78h47c21 0 39-18 39-39v-94z m0-594c0-21-18-39-39-39h-766a39 39 0 0 0-39 39v516h844v-516z m-39 805h-47v78h-78v-78h-516v78h-78v-78h-47a117 117 0 0 1-117-117v-688a117 117 0 0 1 117-117h766a117 117 0 0 1 117 117v688a117 117 0 0 1-117 117z m-716-455h66v66h-66z m150 0h66v66h-66z m150 0h66v66h-66z m150 0h66v66h-66z m150 0h66v66h-66z m-600-134h66v67h-66z m150 0h66v67h-66z m150 0h66v67h-66z m150 0h66v67h-66z m-450-166h66v66h-66z m150 0h66v66h-66z m150 0h66v66h-66z m150 0h66v66h-66z m150 166h66v67h-66z" horiz-adv-x="1000" />

<glyph glyph-name="person" unicode="&#xe814;" d="M500 375c-114 0-207 90-207 200 0 110 93 200 207 200 114 0 207-90 207-200 0-110-93-200-207-200m345-147c-53 52-117 91-185 115 73 50 122 134 122 229 0 153-127 278-282 278-155 0-282-125-282-278 0-95 49-179 123-229-69-24-133-63-186-115-92-91-142-212-142-340 0-21 17-38 38-38 21 0 38 17 38 38 0 224 184 406 411 406 227 0 411-182 411-406 0-21 17-38 38-38 21 0 39 17 39 38 0 128-51 249-143 340" horiz-adv-x="1000" />

<glyph glyph-name="question-mark" unicode="&#xe815;" d="M500-59c-226 0-409 183-409 409 0 226 183 409 409 409 226 0 409-183 409-409 0-226-183-409-409-409m0 909c-276 0-500-224-500-500 0-276 224-500 500-500 276 0 500 224 500 500 0 276-224 500-500 500m-10-649c30 0 55-25 55-57 0-31-25-56-55-56-30 0-55 25-55 56 0 32 25 57 55 57m3 399c86 0 170-41 170-138 0-91-100-125-121-158-16-24-11-58-55-58-28 0-42 24-42 47 0 82 116 101 116 169 0 37-24 59-64 59-85 0-52-91-116-91-23 0-43 14-43 42 0 68 74 128 155 128" horiz-adv-x="1000" />

<glyph glyph-name="mobile-fitter" unicode="&#xe816;" d="M295-66c-29 0-53 24-53 53 0 30 24 53 53 53 29 0 53-23 53-53 0-29-24-53-53-53m0 175c-67 0-122-54-122-122 0-67 55-122 122-122 68 0 122 55 122 122 0 68-54 122-122 122m431-172c-31 0-56 25-56 56 0 31 25 55 56 55 30 0 55-24 55-55 0-31-25-56-55-56m0 184c-71 0-128-57-128-128 0-71 57-128 128-128 70 0 127 57 127 128 0 71-57 128-127 128m95 271l-190 0c-8 0-9 9-9 9l0 182c0 0-1 6 10 6l45 0c55 0 88-43 105-75l41-82c2-5 7-15 9-19 7-15-3-21-11-21m143 0c-26 6-48 4-66 39l-64 119c-18 36-64 113-149 111l-52 0c0 0-11-1-11 11l0 93c0 41-23 74-72 74l-447 0c-70 0-103-33-103-74l0-15 0-71 0-17 0-46 0-13 0-3 0-6c0-11 4-15 15-15l110 0c30 0 54 0 55 0 32 64 99 107 175 107 73 0 137-39 171-98l-105 0c-29 0-65-21-79-46l-4-6c-14-25-14-66 0-91l3-6c15-25 51-46 80-46l105 0c-34-59-98-98-171-98-73 0-138 40-171 100l-169-1c-11 0-15-4-15-15l0-16 0-20 0-78 0-1 0-57 0-141c0-40 33-73 74-73l40 0c10 0 11 5 11 8 0 91 75 165 167 165 91 0 166-74 166-165 0-3-1-8 7-8l89 0c6 0 6 5 6 8 0 91 75 165 166 165 92 0 167-74 167-165 0-3 0-8 4-8l83 0c40 0 73 32 73 72l0 215c0 86-32 100-89 112" horiz-adv-x="1053" />

<glyph glyph-name="pen" unicode="&#xe817;" d="M1-122c-4-16 11-31 28-27l226 55-203 204-51-232z m979 854l-91 92c-35 35-92 35-127 0l-87-88 203-204 102 102c27 27 27 71 0 98z m-358-49l203-204-515-518-203 205 515 517z" horiz-adv-x="1000" />

<glyph glyph-name="apr" unicode="&#xe818;" d="M54 354c-36 43-54 108-54 194 0 86 18 150 54 193 35 43 90 65 162 65 73 0 127-22 162-65 36-43 54-107 54-193 0-86-18-151-54-194-35-43-89-64-162-64-72 0-127 21-162 64z m200 67c9 9 15 24 19 44 4 20 6 47 6 83 0 35-2 63-6 83-4 20-10 34-19 43-10 9-22 14-38 14-16 0-28-5-38-14-9-9-15-23-19-43-4-20-6-48-6-83 0-36 2-63 6-83 4-20 10-35 19-44 10-8 22-13 38-13 16 0 28 5 38 13z m486 345c27-26 40-61 40-104 0-44-13-79-40-105-27-26-63-39-108-39-45 0-81 13-108 39-27 26-40 61-40 105 0 43 13 78 40 104 27 27 63 40 108 40 45 0 81-13 108-40z m213 33l114 0-360-502-113 0 359 502z m-349-105c-6-7-10-18-10-32 0-14 4-25 10-33 7-8 16-11 28-11 12 0 21 3 28 11 6 8 9 19 9 33 0 14-3 25-9 32-7 8-16 12-28 12-12 0-21-4-28-12z m532-155c27-27 41-61 41-105 0-44-14-78-41-105-28-26-64-39-108-39-45 0-81 13-108 39-27 27-41 61-41 105 0 44 14 78 41 105 27 26 63 39 108 39 44 0 80-13 108-39z m-136-72c-7-8-10-19-10-33 0-14 3-25 10-33 6-7 16-11 28-11 12 0 21 4 28 11 6 8 10 19 10 33 0 14-4 25-10 33-7 7-16 11-28 11-12 0-22-4-28-11z m-748-532l-114 0-22-78-116 0 126 375 139 0 127-375-119 0-21 78z m-20 75l-21 75-15 61-2 0-15-61-21-75 74 0z m493 190c25-22 38-53 38-95 0-40-13-71-39-92-26-21-63-31-112-31l-71 0 0-125-116 0 0 375 187 0c49 0 87-10 113-32z m-91-126c8 7 13 17 13 32 0 14-5 25-13 31-9 7-23 11-41 11l-52 0 0-84 52 0c18 0 32 3 41 10z m343-87l-47 0 0-130-114 0 0 375 192 0c48 0 84-10 109-31 25-21 38-51 38-91 0-55-23-91-70-110l92-143-127 0-73 130z m-47 79l56 0c19 0 33 4 40 10 8 6 12 16 12 31 0 14-4 25-12 31-8 6-21 10-40 10l-56 0 0-82z" horiz-adv-x="1176" />

<glyph glyph-name="tick" unicode="&#xe819;" d="M679 246c0-159-281-281-293-287-2 0-3 0-5 0-2 0-3 0-5 0-12 6-293 128-293 287l0 389c0 6 5 12 12 12 234 0 275 87 275 87 2 5 6 7 11 7l0 0c5 0 9-2 11-7 0-1 40-87 276-87 6 0 11-6 11-12 0 0 0-389 0-389m68 483c-301 0-352 111-352 112-2 5-8 9-14 9l0 0c-6 0-12-4-14-9 0-1-52-112-352-112-8 0-15-7-15-15l0-497c0-204 360-359 375-366 2-1 4-1 6-1 2 0 4 0 6 1 15 7 375 162 375 366l0 497c0 8-7 15-15 15m-560-392c-3 3-4 8-4 11 0 3 1 7 4 10l22 21c6 6 15 6 21 0l1-1 84-88c3-3 8-3 11 0l205 206 1 0c6 6 15 6 21 0l22-20c6-6 6-15 0-21l-244-247c-3-3-6-4-11-4-5 0-8 1-11 4l-119 125-3 4z" horiz-adv-x="762" />

<glyph glyph-name="arrow-white-left" unicode="&#xe81a;" d="M58 301l424-431c27-27 71-27 98 0 27 28 27 72 0 99l-376 381 376 381c27 27 27 71 0 99-27 27-71 27-98 0l-424-430c-14-14-20-32-20-50 0-18 6-36 20-49" horiz-adv-x="600" />

<glyph glyph-name="credit-card" unicode="&#xe81b;" d="M1280-79l-1131 0c-49 0-89 40-89 89l0 383 1309 0 0-383c0-49-40-89-89-89z m-1220 531l1309 0 0 118-1309 0 0-118z m89 296l1131 0c49 0 89-40 89-89l0-30-1309 0 0 30c0 49 40 89 89 89z m1131 59l-1131 0c-82 0-149-67-149-148l0-59 0-177 0-413c0-82 67-148 149-148l1131 0c82 0 149 66 149 148l0 413 0 177 0 59c0 81-67 148-149 148z m-720-588l-352 0c-16 0-29-12-29-27 0-14 13-26 29-26l352 0c16 0 29 12 29 26 0 15-13 27-29 27m0-125l-352 0c-16 0-29-12-29-27 0-14 13-26 29-26l352 0c16 0 29 12 29 26 0 15-13 27-29 27m632 34c0-16-13-29-29-29l-58 0c-16 0-29 13-29 29l0 58c0 16 13 29 29 29l58 0c16 0 29-13 29-29l0-58z m-29 145l-58 0c-48 0-87-39-87-87l0-58c0-48 39-87 87-87l58 0c48 0 87 39 87 87l0 58c0 48-39 87-87 87z" horiz-adv-x="1429" />

<glyph glyph-name="garage-fitting" unicode="&#xe81c;" d="M982 603l-464 243a57 57 0 0 1-43 0l-457-243a28 28 0 0 1-18-26v-104a28 28 0 0 1 28-28h21a7 7 0 0 0 7-7v-524a64 64 0 0 1 64-64h102c9 0 12 4 12 12v13h0v23a10 10 0 0 0 11 10h158c9 0 13 4 13 12v13h0v214c0 27 0 50 0 51a186 186 0 0 0-9 327l0-98c0-28 20-62 44-76l5-3c24-14 64-14 88 0l5 3c24 14 44 48 44 76l0 98a186 186 0 0 0-1-323l0-282c0-9 3-12 12-12h151a10 10 0 0 0 11-10v-36c0-9 3-12 12-12h101a64 64 0 0 1 64 63v525a7 7 0 0 0 7 7h21a28 28 0 0 1 29 28v104a28 28 0 0 1-18 26" horiz-adv-x="1000" />

<glyph glyph-name="arrow-down-dark-1" unicode="&#xe81d;" d="M761-85l-716 707c-46 45-46 118 0 163 45 45 119 45 165 0l634-626 634 626c45 45 119 45 165 0 46-45 46-118 0-163l-717-707c-22-23-52-34-82-34-30 0-60 11-83 34" horiz-adv-x="1750" />

<glyph glyph-name="twitter" unicode="&#xe81e;" d="M1000 350c0-276-224-500-500-500-276 0-500 224-500 500 0 276 224 500 500 500 276 0 500-224 500-500z m-601-200c193 0 299 159 299 296 0 5 0 9 0 14 20 14 38 33 52 54-19-9-39-14-60-17 21 13 38 34 46 58-20-12-43-21-67-25-19 20-46 33-77 33-58 0-105-47-105-105 0-8 1-16 3-23-87 4-165 45-217 108-9-15-14-33-14-52 0-36 19-68 47-87-17 1-34 6-48 14 0-1 0-1 0-2 0-50 36-92 84-102-8-2-18-4-27-4-7 0-14 1-20 2 13-41 52-71 98-72-36-28-81-45-130-45-9 0-17 1-25 2 46-30 101-47 161-47z" horiz-adv-x="1000" />

<glyph glyph-name="facebook" unicode="&#xe81f;" d="M500 850c276 0 500-224 500-500 0-276-224-500-500-500-276 0-500 224-500 500 0 276 224 500 500 500z m84-331l54 0 0 81-66 0-14 0c0 0-50 1-82-39 0 0-22-20-22-78l0 0 0-61-79 0 0-87 79 0 0-222 91 0 0 222 78 0 11 87-89 0 0 61 0 0c0 6 3 36 39 36z" horiz-adv-x="1000" />

<glyph glyph-name="white-spanner" unicode="&#xe820;" d="M999 638l-165-164-144 51-51 144 165 165c-108 36-232 11-318-75-85-84-110-205-77-312-5-3-9-7-13-11l-338-339c-57-56-57-148 0-205 56-56 148-56 205 0l338 339c4 4 8 8 11 13 107-34 228-8 312 76 86 86 111 210 75 318" horiz-adv-x="1045" />

<glyph glyph-name="green-tick" unicode="&#xe821;" d="M688 527l-258-257-117 118c-18 17-47 17-65 0-17-18-17-47 0-65l150-150c9-8 20-13 32-13l0 0c12 0 24 5 33 13l289 290c18 17 18 46 0 64-18 18-47 18-64 0m-188-586c-226 0-409 183-409 409 0 226 183 409 409 409 226 0 409-183 409-409 0-226-183-409-409-409m0 909c-276 0-500-224-500-500 0-276 224-500 500-500 276 0 500 224 500 500 0 276-224 500-500 500" horiz-adv-x="1000" />

<glyph glyph-name="length" unicode="&#xe822;" d="M819 332h-662c-3 0-5 2-5 5s2 5 5 5h662c3 0 5-3 5-5s-2-5-5-5z" horiz-adv-x="1000" />

<glyph glyph-name="van" unicode="&#xe823;" d="M1118-71c-40 0-72 33-72 72 0 38 32 71 72 71 38 0 70-32 70-71 0-40-32-72-70-72m0 199c-34 0-67-13-91-37-25-24-38-56-38-90 0-35 13-66 38-91 24-24 57-37 91-37 70 0 126 57 126 128 0 70-56 127-126 127m56 190l-166 0 0 166 101 0 65-57 0-109z m-37 213c-4 4-11 7-18 7l-138 0c-14 0-26-12-26-27l0-219c0-15 12-27 26-27l219 0c15 0 27 12 27 27l0 146c0 8-3 15-9 20l-81 73z m-701-602c-39 0-72 33-72 72 0 38 33 71 72 71 38 0 70-32 70-71 0-40-32-72-70-72m0 199c-34 0-67-13-91-37-24-24-38-56-38-90 0-35 13-66 38-91 25-24 57-37 91-37 70 0 127 57 127 128 0 70-57 127-127 127m-190-31l-55 0 0 73c0 14-12 27-27 27-15 0-28-13-28-27l0-100c0-15 13-27 28-27l82 0c15 0 27 12 27 27 0 15-12 27-27 27m146 159c0 14-12 26-28 26l-336 0c-15 0-28-12-28-26 0-14 13-25 28-25l336 0c16 0 28 11 28 25m-313 96l336-2c15 0 28 11 28 25 1 13-12 24-27 24l-337 2 0 0c-15 0-28-11-28-24 0-14 12-25 28-25m68 117l337 0c15 0 27 12 27 26 0 14-12 26-27 26l-337 0c-15 0-28-12-28-26 0-14 13-26 28-26m1206 43l-199 165c-5 4-11 6-18 6l-234 0 0 100c0 15-13 27-28 27l-710 0c-15 0-28-12-28-27l0-203c0-15 13-28 28-28 16 0 28 13 28 28l0 175 654 0 0-656-228 0c-16 0-28-13-28-28 0-15 12-28 28-28l340 0c15 0 28 13 28 28 0 15-13 28-28 28l-56 0 0 529 224 0 182-150-2-379-29 0c-15 0-28-12-28-28 0-15 13-27 28-27l57 0c15 0 27 12 27 27l3 420c-1 8-4 16-11 21" horiz-adv-x="1364" />

<glyph glyph-name="circled-tick" unicode="&#xe824;" d="M688 527l-258-257-117 118c-18 17-47 17-65 0-17-18-17-47 0-65l150-150c9-8 20-13 32-13l0 0c12 0 24 5 33 13l289 290c18 17 18 46 0 64-18 18-47 18-64 0m-188-586c-226 0-409 183-409 409 0 226 183 409 409 409 226 0 409-183 409-409 0-226-183-409-409-409m0 909c-276 0-500-224-500-500 0-276 224-500 500-500 276 0 500 224 500 500 0 276-224 500-500 500" horiz-adv-x="1000" />

<glyph glyph-name="basket" unicode="&#xe825;" d="M920 463l-113-530 0-2c0-1-4-4-5-4l-605 0c-1 0-4 3-5 4l-113 530 842 0-1 2z m67 54c-11 14-28 23-46 23l-13 0-312 299c-8 7-17 11-27 11-10 0-19-5-26-12-7-8-10-17-11-27 1-11 6-21 14-27l251-244-635 0 252 242c15 15 16 39 3 54-14 16-37 17-53 3l-313-299-13 0c-17 1-34-7-44-22-12-14-17-33-12-51l116-551c8-38 41-66 79-66l608 0c38 1 70 28 79 66l116 551c1 17-3 35-13 50z m-481-426c21 0 38 17 38 38l0 176c0 22-17 39-38 39-20-1-37-18-38-39l0-177c1-21 18-37 38-37m-202 0c21 0 37 17 38 38l0 176c0 22-17 39-38 39-21-1-37-18-38-39l0-177c1-21 18-37 38-37m392 0c21 0 38 17 38 38l0 176c0 22-17 39-38 39-20-1-37-18-38-39l0-177c2-21 18-37 38-37" horiz-adv-x="1000" />

<glyph glyph-name="cross" unicode="&#xe826;" d="M500 421l106 106c20 19 51 19 71 0 19-20 19-51 0-71l-106-106 106-106c19-20 19-51 0-71-20-19-51-19-71 0l-106 106-106-106c-20-19-51-19-71 0-19 20-19 51 0 71l106 106-106 106c-19 20-19 51 0 71 20 19 51 19 71 0l106-106z m0-480c226 0 409 183 409 409 0 226-183 409-409 409-226 0-409-183-409-409 0-226 183-409 409-409z m0 909c276 0 500-224 500-500 0-276-224-500-500-500-276 0-500 224-500 500 0 276 224 500 500 500z" horiz-adv-x="1000" />

<glyph glyph-name="angle-right" unicode="&#xe827;" d="M332 314q0-7-5-12l-261-261q-5-5-12-5t-13 5l-28 28q-6 6-6 13t6 13l219 219-219 220q-6 5-6 12t6 13l28 28q5 6 13 6t12-6l261-260q5-5 5-13z" horiz-adv-x="357.1" />

<glyph glyph-name="angle-down" unicode="&#xe828;" d="M600 439q0-7-6-12l-260-261q-5-5-13-5t-12 5l-260 261q-6 5-6 12t6 13l28 28q5 6 12 6t13-6l219-219 220 219q5 6 13 6t12-6l28-28q6-5 6-13z" horiz-adv-x="642.9" />

<glyph glyph-name="mail-alt" unicode="&#xf0e0;" d="M1000 454v-443q0-37-26-63t-63-27h-822q-36 0-63 27t-26 63v443q25-27 56-49 202-137 278-192 32-24 51-37t53-27 61-13h2q28 0 61 13t53 27 51 37q95 68 278 192 32 22 56 49z m0 164q0-44-27-84t-68-69q-210-146-262-181-5-4-23-17t-30-22-29-18-32-15-28-5h-2q-12 0-27 5t-32 15-30 18-30 22-23 17q-51 35-147 101t-114 80q-35 23-65 64t-31 77q0 43 23 72t66 29h822q36 0 63-26t26-63z" horiz-adv-x="1000" />

<glyph glyph-name="down-arrow" unicode="&#xf107;" d="M805-71l-715 715c-45 46-45 119 0 165 46 45 119 45 165 0l632-633 633 633c45 45 119 45 165 0 45-46 45-119 0-165l-715-715c-23-23-53-34-83-34-29 0-59 11-82 34" horiz-adv-x="1769" />
</font>
</defs>
</svg>
